<svg width="230" height="230" viewBox="0 0 500 220" xmlns="http://www.w3.org/2000/svg">
  <defs>
    <linearGradient id="metal" x1="0" y1="0" x2="500" y2="500" gradientUnits="userSpaceOnUse">
      <stop offset="0%" stop-color="#F2EFEA"></stop>
      <stop offset="28%" stop-color="#BBBAB6"></stop>
      <stop offset="55%" stop-color="#7E7F82"></stop>
      <stop offset="78%" stop-color="#3A3A3C"></stop>
      <stop offset="100%" stop-color="#0F0F11"></stop>
    </linearGradient>
  </defs>

  <g transform="rotate(-15, 250, 250)">
    <!-- center -->
    <line x1="411" y1="200" x2="316.5" y2="36.65" stroke="url(#metal)" stroke-width="14" stroke-linecap="round"></line>
    <line x1="354.3" y1="200" x2="259.8" y2="36" stroke="url(#metal)" stroke-width="14" stroke-linecap="round"></line>
    <line x1="297.6" y1="200" x2="203.1" y2="36" stroke="url(#metal)" stroke-width="14" stroke-linecap="round"></line>
    <line x1="240.9" y1="200" x2="118.05" y2="-13.11" stroke="url(#metal)" stroke-width="14" stroke-linecap="round"></line>

    <!-- group 1 -->
    <line x1="146.4" y1="36" x2="467.4" y2="36" stroke="url(#metal)" stroke-width="14" stroke-linecap="round"></line>
    <line x1="411" y1="200" x2="439.35" y2="249.11" stroke="url(#metal)" stroke-width="14" stroke-linecap="round"></line>
    <line x1="90" y1="200" x2="411" y2="200" stroke="url(#metal)" stroke-width="14" stroke-linecap="round"></line>

    <!-- group 2 -->
    <line x1="118.05" y1="-13.11" x2="420.45" y2="-13.11" stroke="url(#metal)" stroke-width="14" stroke-linecap="round"></line>
    <line x1="439.35" y1="249.11" x2="136.95" y2="249.11" stroke="url(#metal)" stroke-width="14" stroke-linecap="round"></line>

    <!-- group 3 -->
    <line x1="118.05" y1="-13.11" x2="174.75" y2="-111.33" stroke="url(#metal)" stroke-width="14" stroke-linecap="round"></line>
    <line x1="439.35" y1="249.11" x2="382.65" y2="347.33" stroke="url(#metal)" stroke-width="14" stroke-linecap="round"></line>

    <!-- group 4 -->
    <line x1="146.4" y1="-62.22" x2="373.2" y2="-62.22" stroke="url(#metal)" stroke-width="14" stroke-linecap="round"></line>
    <line x1="411" y1="298.22" x2="184.2" y2="298.22" stroke="url(#metal)" stroke-width="14" stroke-linecap="round"></line>

    <!-- group 5 -->
    <line x1="174.75" y1="-111.33" x2="325.95" y2="-111.33" stroke="url(#metal)" stroke-width="14" stroke-linecap="round"></line>
    <line x1="382.65" y1="347.33" x2="231.45" y2="347.33" stroke="url(#metal)" stroke-width="14" stroke-linecap="round"></line>
  </g>
</svg>
